<svg xmlns="http://www.w3.org/2000/svg" viewBox="0 0 188.2 215.7"><defs><style>.cls-1{isolation:isolate;}.cls-2{fill:#ff4a00;}.cls-3{fill:#63b8b0;}.cls-4{fill:#fff;}.cls-5{fill:#9bbd2f;}.cls-6{fill:#fd7161;}.cls-7{fill:#f3f0e9;}.cls-8{fill:#f2b02b;}.cls-9{fill:#f60;}.cls-10{fill:#006266;}.cls-11{fill:#c7b8b1;}.cls-12{fill:#fbd9a5;}.cls-13{fill:#231f20;}.cls-14{fill:#1e7586;}.cls-15{fill:#f3bb3e;}.cls-16{fill:#b54051;opacity:0.12;}.cls-17{fill:#c2b59b;opacity:0.9;}.cls-18,.cls-21{fill:#e6e7e8;}.cls-18{mix-blend-mode:multiply;}.cls-19{fill:#6aaa9f;}.cls-20{fill:#f6e19c;}.cls-22{fill:#939598;}.cls-23{fill:#808285;opacity:0.09;}.cls-24{fill:#6d6e71;}.cls-25{fill:#c49a6c;}.cls-26{fill:#fcfdfe;}.cls-27{fill:#775a46;}.cls-28{fill:#75573e;}</style></defs><title>graphic1</title><g class="cls-1"><g id="Layer_2" data-name="Layer 2"><g id="Graphics"><path class="cls-2" d="M140.48,25.17H124.39L135.76,13.8a27.7,27.7,0,0,0-3-3.52h0a27.75,27.75,0,0,0-3.52-3L117.89,18.68V2.59a27.74,27.74,0,0,0-4.58-.38h0a27.74,27.74,0,0,0-4.58.38V18.68L97.33,7.3a27.54,27.54,0,0,0-3.52,3h0a27.64,27.64,0,0,0-3,3.52l11.38,11.38H86.12s-.38,3-.38,4.58v0a27.58,27.58,0,0,0,.38,4.58h16.09L90.84,45.73a27.74,27.74,0,0,0,6.5,6.5l11.38-11.38V56.94a27.73,27.73,0,0,0,4.57.38h0a27.71,27.71,0,0,0,4.57-.38V40.85l11.38,11.38a27.74,27.74,0,0,0,3.52-3h0a27.83,27.83,0,0,0,3-3.52L124.39,34.36h16.09a27.74,27.74,0,0,0,.38-4.57v0A27.74,27.74,0,0,0,140.48,25.17Zm-20.29,4.61a16.47,16.47,0,0,1-1.06,5.82,16.5,16.5,0,0,1-5.82,1.06h0a16.51,16.51,0,0,1-5.82-1.06,16.48,16.48,0,0,1-1.06-5.82v0a16.49,16.49,0,0,1,1.06-5.82,16.47,16.47,0,0,1,5.82-1.06h0a16.47,16.47,0,0,1,5.82,1.06,16.47,16.47,0,0,1,1.06,5.82Z"/><circle class="cls-3" cx="54.24" cy="57.09" r="5.93"/><path class="cls-4" d="M57.91,57a.16.16,0,0,0,.12,0,.18.18,0,0,0,0-.13,3.9,3.9,0,0,0,0-.45.17.17,0,0,0-.2-.15l-.25,0c0-.11-.05-.22-.09-.33l.24-.08a.16.16,0,0,0,.1-.09.19.19,0,0,0,0-.14,3.45,3.45,0,0,0-.19-.41.18.18,0,0,0-.24-.08l-.22.13c-.06-.09-.12-.19-.19-.28l.2-.15a.17.17,0,0,0,.06-.11.19.19,0,0,0,0-.14,3.49,3.49,0,0,0-.31-.32.18.18,0,0,0-.25,0l-.17.19-.27-.21.14-.21a.17.17,0,0,0,0-.13.18.18,0,0,0-.08-.12l-.4-.21a.17.17,0,0,0-.23.09l-.09.23-.33-.11.06-.24a.15.15,0,0,0,0-.12.18.18,0,0,0-.12-.08,3.19,3.19,0,0,0-.45-.07.17.17,0,0,0-.19.16v.25h-.35l0-.25a.17.17,0,0,0-.17-.16h0l-.44.08a.18.18,0,0,0-.12.08.16.16,0,0,0,0,.13l.07.24-.32.12-.1-.23a.18.18,0,0,0-.24-.08,3.76,3.76,0,0,0-.39.22.18.18,0,0,0-.08.12.15.15,0,0,0,0,.12l.14.21-.27.22L52,54.33a.18.18,0,0,0-.25,0,3.93,3.93,0,0,0-.3.34.18.18,0,0,0,0,.14.16.16,0,0,0,.06.11l.2.15a2.86,2.86,0,0,0-.18.29l-.22-.12a.18.18,0,0,0-.23.08,3.57,3.57,0,0,0-.17.41.19.19,0,0,0,0,.15A.17.17,0,0,0,51,56l.24.07a2.91,2.91,0,0,0-.08.34l-.25,0a.18.18,0,0,0-.19.15,3.54,3.54,0,0,0,0,.45.17.17,0,0,0,.17.18h.25a3.18,3.18,0,0,0,0,.34l-.24,0a.16.16,0,0,0-.11.07.18.18,0,0,0,0,.14,3.83,3.83,0,0,0,.12.43.18.18,0,0,0,.22.11l.23-.09a3,3,0,0,0,.14.31l-.21.12a.17.17,0,0,0-.08.1.18.18,0,0,0,0,.14,4,4,0,0,0,.25.37.18.18,0,0,0,.25,0l.18-.15.24.25-.16.18a.15.15,0,0,0,0,.12.17.17,0,0,0,.06.13,3.54,3.54,0,0,0,.36.27.18.18,0,0,0,.25,0l.13-.2.31.16-.1.22a.16.16,0,0,0,0,.13.18.18,0,0,0,.1.1l.43.14a.18.18,0,0,0,.21-.12l.05-.23.34.05,0,.24a.16.16,0,0,0,0,.12.17.17,0,0,0,.13.06h.45a.2.2,0,0,0,.13-.07.16.16,0,0,0,0-.12l0-.24.34-.06.06.23a.18.18,0,0,0,.22.12l.42-.15a.18.18,0,0,0,.1-.11.15.15,0,0,0,0-.13l-.1-.22.3-.17.13.2a.17.17,0,0,0,.24,0,4.18,4.18,0,0,0,.35-.28.19.19,0,0,0,.06-.13.16.16,0,0,0,0-.12l-.17-.17a3.26,3.26,0,0,0,.23-.26l.19.15a.18.18,0,0,0,.24,0,3.27,3.27,0,0,0,.24-.38.19.19,0,0,0,0-.14.15.15,0,0,0-.08-.1l-.22-.11a3.25,3.25,0,0,0,.13-.32l.23.08a.18.18,0,0,0,.22-.12,3.71,3.71,0,0,0,.1-.44.17.17,0,0,0,0-.14.16.16,0,0,0-.11-.07l-.25,0a3.26,3.26,0,0,0,0-.34Zm-.58,0A2.94,2.94,0,1,1,54.39,54,2.94,2.94,0,0,1,57.33,56.95Z"/><path class="cls-3" d="M32.07,25.77a67.09,67.09,0,0,1,47-21.46v.25c-36.81,1.16-66,32.19-66.39,70.65h-.25A73,73,0,0,1,32.07,25.77Z"/><path class="cls-3" d="M12.74,75.27h-.39v-.07A73.11,73.11,0,0,1,32,25.72,67.16,67.16,0,0,1,79,4.24h.07v.39h-.07C42.28,5.78,13.15,36.78,12.74,75.2Zm-.25-.14h.11C13,36.69,42.19,5.68,79,4.48V4.38A67,67,0,0,0,32.12,25.82,73,73,0,0,0,12.49,75.12Z"/><polygon class="cls-3" points="13.8 74.85 12.55 76.96 11.35 74.82 13.8 74.85"/><path class="cls-3" d="M12.55,77.1l-1.32-2.35,2.69,0Zm-1.08-2.21,1.08,1.93,1.13-1.9Z"/><polygon class="cls-3" points="80.35 4.4 78.91 5.96 78.8 2.97 80.35 4.4"/><path class="cls-3" d="M78.85,6.13,78.72,2.8l1.72,1.6Zm0-3L79,5.78l1.27-1.38Z"/><path class="cls-3" d="M55.32,41.08a35.63,35.63,0,0,1,25-11.4v.13c-19.55.62-35,17.1-35.26,37.52h-.13A38.8,38.8,0,0,1,55.32,41.08Z"/><path class="cls-3" d="M45.15,67.47h-.41v-.14A38.93,38.93,0,0,1,55.21,41,35.77,35.77,0,0,1,80.27,29.54h.14v.41h-.14c-19.48.61-34.91,17-35.12,37.38Z"/><polygon class="cls-3" points="45.62 67.14 44.95 68.26 44.32 67.13 45.62 67.14"/><path class="cls-3" d="M45,68.54,44.08,67l1.79,0Zm-.39-1.27L45,68l.42-.71Z"/><polygon class="cls-3" points="80.96 29.73 80.2 30.55 80.14 28.97 80.96 29.73"/><path class="cls-3" d="M80.07,30.9,80,28.64l1.17,1.09Zm.22-1.6,0,.91.44-.47Z"/><path class="cls-3" d="M71.63,55.79A14.78,14.78,0,0,1,82,51.06v.05c-8.11.26-14.54,7.09-14.63,15.57H67.3A16.1,16.1,0,0,1,71.63,55.79Z"/><path class="cls-3" d="M67.49,66.82h-.33v-.14a16.23,16.23,0,0,1,4.37-11A14.93,14.93,0,0,1,82,50.92h.14v.33H82c-8,.25-14.4,7-14.49,15.43Z"/><polygon class="cls-3" points="67.61 66.61 67.33 67.07 67.06 66.6 67.61 66.61"/><polygon class="cls-3" points="67.33 67.35 66.83 66.46 67.85 66.47 67.33 67.35"/><polygon class="cls-3" points="82.27 51.08 81.95 51.42 81.93 50.77 82.27 51.08"/><polygon class="cls-3" points="81.83 51.77 81.78 50.44 82.47 51.08 81.83 51.77"/><ellipse class="cls-5" cx="59.84" cy="10.66" rx="10.67" ry="10.66"/><ellipse class="cls-6" cx="41.53" cy="36.52" rx="7.25" ry="7.24"/><ellipse class="cls-5" cx="79.28" cy="62.65" rx="6.46" ry="6.45"/><path class="cls-7" d="M81.66,58.22a3.63,3.63,0,0,0-4.1,6l-1.5,2.57a.55.55,0,0,0,.2.75.54.54,0,0,0,.75-.2l1.5-2.57a3.63,3.63,0,0,0,3.15-6.51Zm.37,4.4a2.53,2.53,0,0,1-4.38-2.54,2.54,2.54,0,0,1,3.46-.92A2.53,2.53,0,0,1,82,62.62Z"/><path class="cls-7" d="M79.19,59.39a2.24,2.24,0,0,0-1.35,1.06.13.13,0,0,0,.06.18.12.12,0,0,0,.1,0,.16.16,0,0,0,.09-.07,2,2,0,0,1,1.2-.93,2.28,2.28,0,0,1,1.7.12.14.14,0,1,0,.12-.24A2.53,2.53,0,0,0,79.19,59.39Z"/><circle class="cls-3" cx="19.41" cy="41.47" r="11.05"/><circle class="cls-8" cx="64.42" cy="35.24" r="8.85"/><path class="cls-4" d="M12,39.35v2h1v-2h1v5h-1v-2.1H12v2.1h-1v-5Z"/><path class="cls-4" d="M15.46,40.25h-.89v-.9h2.76v.9h-.9v4.13h-1Z"/><path class="cls-4" d="M20.92,42.62c0-.48-.06-1.13-.05-1.66h0c-.09.54-.22,1.16-.32,1.54l-.44,1.8h-.69L19,42.53c-.1-.4-.23-1-.31-1.57h0c0,.54-.05,1.18-.07,1.68l-.09,1.75h-.84l.36-5h1l.4,1.82c.13.63.26,1.19.35,1.76h0c.07-.56.19-1.13.31-1.76l.4-1.82h1l.31,5H21Z"/><path class="cls-4" d="M22.6,39.35h1v4.2h1.28v.83H22.6Z"/><path class="cls-4" d="M27.73,40.38H26.45l-.11.87h.14a1.58,1.58,0,0,1,.92.37,1.49,1.49,0,0,1,.42,1.12,1.62,1.62,0,0,1-1.69,1.71,2.17,2.17,0,0,1-.91-.19l.15-.77a1.7,1.7,0,0,0,.69.16.75.75,0,0,0,.79-.82c0-.66-.49-.87-1.05-.87a2.53,2.53,0,0,0-.35,0l.28-2.43h2Z"/><path class="cls-4" d="M58.42,32.69h.9v1.74h0a1.11,1.11,0,0,1,.29-.28.91.91,0,0,1,.45-.12c.62,0,.86.52.86,1.37v2H60v-2c0-.33-.06-.62-.33-.62s-.28.09-.35.32a1.33,1.33,0,0,0,0,.25v2.08h-.9Z"/><path class="cls-4" d="M62.61,33.21v.87h.66v.64h-.66v1.53c0,.39.16.49.34.49l.24,0v.7a2.14,2.14,0,0,1-.55.06.93.93,0,0,1-.65-.21,1.24,1.24,0,0,1-.28-1V34.72h-.4v-.64h.4v-.59Z"/><path class="cls-4" d="M64.73,33.21v.87h.66v.64h-.66v1.53c0,.39.16.49.34.49l.24,0v.7a2.14,2.14,0,0,1-.55.06.93.93,0,0,1-.65-.21,1.24,1.24,0,0,1-.28-1V34.72h-.4v-.64h.4v-.59Z"/><path class="cls-4" d="M65.8,35.14c0-.4,0-.74,0-1.06h.78l0,.38h0a.77.77,0,0,1,.71-.45c.73,0,1,.8,1,1.73,0,1.19-.52,1.73-1.09,1.73a.65.65,0,0,1-.55-.33h0v1.59h-.9Zm.9,1.07a.67.67,0,0,0,0,.28c.07.21.18.26.29.26.31,0,.43-.47.43-1s-.16-1-.42-1a.35.35,0,0,0-.3.29.55.55,0,0,0,0,.24Z"/><path class="cls-4" d="M68.9,34.68a.55.55,0,0,1,.51-.57.52.52,0,0,1,.51.57.51.51,0,0,1-.51.56A.52.52,0,0,1,68.9,34.68Zm0,2.24a.54.54,0,0,1,.51-.57.52.52,0,0,1,.51.57.51.51,0,0,1-.51.57A.52.52,0,0,1,68.9,36.92Z"/><path class="cls-4" d="M35.45,36.55l3.29-1.61v.7l-2.41,1.12h0l2.41,1.12v.69L35.45,37Z"/><path class="cls-4" d="M39.46,36.8a.56.56,0,0,1,.53-.6.6.6,0,0,1,0,1.19A.54.54,0,0,1,39.46,36.8Z"/><path class="cls-4" d="M41.06,36.8a.56.56,0,0,1,.53-.6.6.6,0,0,1,0,1.19A.54.54,0,0,1,41.06,36.8Z"/><path class="cls-4" d="M42.65,36.8a.56.56,0,0,1,.53-.6.6.6,0,0,1,0,1.19A.54.54,0,0,1,42.65,36.8Z"/><path class="cls-4" d="M47.6,37.06l-3.29,1.52v-.68l2.63-1.14h0l-2.63-1.14v-.68l3.29,1.52Z"/><rect class="cls-3" x="147.99" y="193.98" width="33.28" height="6.19"/><rect class="cls-4" x="151.16" y="196.16" width="30.12" height="2.36"/><rect class="cls-9" x="150.16" y="190.41" width="27.69" height="3.57"/><rect class="cls-4" x="150.98" y="190.91" width="26.86" height="2.44"/><rect class="cls-10" x="147.86" y="188.56" width="33.28" height="1.85"/><rect class="cls-4" x="148.79" y="189.16" width="32.35" height="0.54"/><path class="cls-11" d="M77.61,201.85h45.9a48.69,48.69,0,0,0,4.79-21.46c0-21.11,19.66-43.85-27.18-43.85-47.94,0-28.3,22.74-28.3,43.85A48.69,48.69,0,0,0,77.61,201.85Z"/><path class="cls-12" d="M122.27,110.34c-.6-1-2,1.16-2.7,2.9a85.37,85.37,0,0,1-2-12.75c-3.92-4.17-9-4.7-15.32-4.7-7,0-14.75,1.06-18.78,4.44-.22,4.5-.69,12.23-.68,12.65-.69-1.68-1.88-3.54-2.46-2.54-1,1.74-2.4,4.09-.79,7.3s2.11,4.61,3.23,3.4a2.22,2.22,0,0,0,.43-.86c2.65,7.29,4.55,11.7,11,14.35.45,3.87.75,9.9.34,11.14C93.78,148,88,154.89,88,154.89c24.51.69,24.56-.94,27.41,0,2.55.84-6.16-6.45-7-8.57-.48-1.15-.57-7.2-.43-11.28,5.53-2.7,8.75-7.5,11.52-14.63a1.88,1.88,0,0,0,.36.63c1.12,1.21,1.62-.19,3.23-3.4S123.28,112.08,122.27,110.34Z"/><path class="cls-13" d="M119.28,117.49s4-17,3.38-21.19-2.11-9-17.91-11-26.13,1.2-26.13,1.2l8.64,4-14.75.8,7,8.59a108.34,108.34,0,0,1,1.9,11,41.33,41.33,0,0,0,1.48,8l1.69-17.12,22.54,2.53-1.26-2.53,5.9,2.33.63-2.33h5.27Z"/><path class="cls-14" d="M142.42,181.39,129.7,148.68c-5.74-4.07-21.27-5.29-21.27-5.29L102,151.73h-1.41l-6.3-7.45,0-.12h-.14L94,144l-.12.17c-2.5.1-16.12.82-21.33,4.51L56.68,181.39s-12,19.27,3.56,19.27c5.8,0,15.94.1,15.94.1l0-9.51-12.05-2.19,14.31-26.83-.17,43.85H124l.26-45.43,9,27.44-8.31,2.12.12,10.56h12.32C153,200.77,142.42,181.39,142.42,181.39Z"/><polygon class="cls-15" points="88.51 154.24 84.14 159.91 88.51 165.7 93.02 159.94 88.51 154.24"/><polygon class="cls-15" points="97.06 154.24 92.69 159.91 97.06 165.7 101.57 159.94 97.06 154.24"/><polygon class="cls-15" points="105.5 154.24 101.12 159.91 105.5 165.7 110 159.94 105.5 154.24"/><polygon class="cls-15" points="114.03 154.24 109.66 159.91 114.03 165.7 118.54 159.94 114.03 154.24"/><polygon class="cls-15" points="88.51 165.24 84.14 170.91 88.51 176.7 93.02 170.94 88.51 165.24"/><polygon class="cls-15" points="97.06 165.24 92.69 170.91 97.06 176.7 101.57 170.94 97.06 165.24"/><polygon class="cls-15" points="105.5 165.24 101.12 170.91 105.5 176.7 110 170.94 105.5 165.24"/><polygon class="cls-15" points="114.03 165.24 109.66 170.91 114.03 176.7 118.54 170.94 114.03 165.24"/><polygon class="cls-15" points="88.51 176.24 84.14 181.91 88.51 187.7 93.02 181.94 88.51 176.24"/><polygon class="cls-15" points="97.06 176.24 92.69 181.91 97.06 187.7 101.57 181.94 97.06 176.24"/><polygon class="cls-15" points="105.5 176.24 101.12 181.91 105.5 187.7 110 181.94 105.5 176.24"/><polygon class="cls-15" points="114.03 176.24 109.66 181.91 114.03 187.7 118.54 181.94 114.03 176.24"/><polygon class="cls-15" points="88.51 187.24 84.14 192.9 88.51 198.7 93.02 192.94 88.51 187.24"/><polygon class="cls-15" points="97.06 187.24 92.69 192.9 97.06 198.7 101.57 192.94 97.06 187.24"/><polygon class="cls-15" points="105.5 187.24 101.12 192.9 105.5 198.7 110 192.94 105.5 187.24"/><polygon class="cls-15" points="114.03 187.24 109.66 192.9 114.03 198.7 118.54 192.94 114.03 187.24"/><polygon class="cls-13" points="119.33 120.69 115.77 131.35 101.46 138.83 86.45 132.48 83.22 120.17 88.11 130.18 101.72 136.42 114.66 129.5 119.33 120.69"/><path class="cls-16" d="M69.49,155.06s-2.08,4.38-5.18,10.64S53.88,186.3,52.7,193.8c-.23,1.49.25,4.29,2.46,5.5s22.4,1.35,22.4,1.35-17.3-2.27-19.06-4.26-1.2-3.42,2.33-11.83C64.08,176.81,69.49,155.06,69.49,155.06Z"/><path class="cls-13" d="M120,109.36H104.65L101,111l-3.55-1.59H81.79v0l1.08,5h0c.34,1.09.54,2.22.87,3.32a6.35,6.35,0,0,0,.78,1.75,4,4,0,0,0,1.43,1.3,8,8,0,0,0,3.88.8,14.12,14.12,0,0,0,4-.64,10.89,10.89,0,0,0,1.84-.75,6.51,6.51,0,0,0,.84-.51,2.83,2.83,0,0,0,.67-.67,8.74,8.74,0,0,0,.9-1.68c.25-.59.48-1.18.69-1.79s.42-1.21.68-1.81c.07-.15.14-.3.22-.45a1.58,1.58,0,0,1,.14-.22.84.84,0,0,1,.23-.21,2.19,2.19,0,0,1,1.06-.21,2.27,2.27,0,0,1,.86.12l.1,0,0,0,.07,0a.8.8,0,0,1,.19.17,2.1,2.1,0,0,1,.23.36,13.08,13.08,0,0,1,.61,1.45c.37,1,.71,1.94,1.16,2.87a7.24,7.24,0,0,0,.78,1.31,2.48,2.48,0,0,0,.52.52,6.76,6.76,0,0,0,.66.42,11.46,11.46,0,0,0,3,1.1,13.68,13.68,0,0,0,3.18.35,8.31,8.31,0,0,0,3.1-.56,4.51,4.51,0,0,0,1.29-.81,4.2,4.2,0,0,0,.87-1.2,14,14,0,0,0,.9-2.92c.19-.78,1.46-6.5,1.46-6.5A.05.05,0,0,1,120,109.36Zm-22.42,5.93a7.45,7.45,0,0,1-1,2.07,5.6,5.6,0,0,1-1.75,1.57,7.93,7.93,0,0,1-2.26.79,12,12,0,0,1-2.4.24,7.63,7.63,0,0,1-2.35-.36,3.56,3.56,0,0,1-1-.54l-.21-.18a2,2,0,0,1-.17-.2,4.19,4.19,0,0,1-.29-.48,9.83,9.83,0,0,1-.78-2.13,10.24,10.24,0,0,1-.32-2.23,4.32,4.32,0,0,1,.41-2.14,1.64,1.64,0,0,1,.77-.7,3.86,3.86,0,0,1,1.11-.31c.78-.11,1.6-.13,2.41-.18s1.62-.1,2.43-.1a19.11,19.11,0,0,1,2.42.13,7.3,7.3,0,0,1,2.31.64,2.41,2.41,0,0,1,.89.76,1.82,1.82,0,0,1,.29,1.09A8.08,8.08,0,0,1,97.62,115.29Zm19.6.79a9.59,9.59,0,0,1-.78,2.13,4.24,4.24,0,0,1-.3.48l-.16.2a1.81,1.81,0,0,1-.22.18,3.42,3.42,0,0,1-1,.54,7.54,7.54,0,0,1-2.34.36,12,12,0,0,1-2.4-.24,8,8,0,0,1-2.26-.79,5.55,5.55,0,0,1-1.75-1.57,7.34,7.34,0,0,1-1-2.07,8.19,8.19,0,0,1-.47-2.25,1.82,1.82,0,0,1,.29-1.09,2.4,2.4,0,0,1,.9-.76,7.25,7.25,0,0,1,2.3-.64,19.14,19.14,0,0,1,2.42-.13c.82,0,1.61.05,2.43.1s1.63.06,2.42.18a3.87,3.87,0,0,1,1.1.31,1.64,1.64,0,0,1,.77.7,4.32,4.32,0,0,1,.41,2.14A9.7,9.7,0,0,1,117.21,116.08Z"/><rect class="cls-17" x="15.97" y="204.86" width="167.55" height="10.84"/><polygon class="cls-18" points="38.21 159.21 76.85 200.64 109.1 177.66 39.63 154.76 38.21 159.21"/><polygon class="cls-3" points="25.52 198.01 21.76 164.06 29.86 147.94 30.38 152.96 23.28 164.06 29.58 198.01 25.52 198.01"/><circle class="cls-19" cx="22.41" cy="164.06" r="2"/><circle class="cls-20" cx="41.41" cy="158.24" r="2.66" transform="translate(-118.95 190.49) rotate(-86.71)"/><polygon class="cls-19" points="29.86 147.94 36.43 148.48 29.37 155.92 29.86 147.94"/><path class="cls-3" d="M34.88,165.44a10.28,10.28,0,0,1-1.63-1,10,10,0,1,1,12.24-15.82,10.46,10.46,0,0,1,1.41,1.32Z"/><polygon class="cls-3" points="36.88 199.32 30.19 196.03 24.21 196.03 18.09 199.32 17 199.32 17 200.21 38.09 200.21 38.09 199.32 36.88 199.32"/><path class="cls-21" d="M128.89,197.51c0,2.39-2,3.43-4.65,3.43h-48c-2.5,0-4.65-.67-4.65-3.43l-1-26c0-2.67.69-3.43,3.19-3.43h52.91c2.54,0,3.19.94,3.19,3.43Z"/><path class="cls-4" d="M126.62,168.08H73.71c-2.5,0-3.1.59-3.1,2.44v.09s-.08-1.47,29.48-1.47,29.72,1.41,29.72,1.41v-.09C129.81,168.74,129.16,168.08,126.62,168.08Z"/><path class="cls-22" d="M70.61,170.61c.25-.33,2.33-.59,3.56-.78s2.46-.32,3.69-.45c2.47-.24,4.95-.39,7.42-.51,5-.23,9.92-.24,14.89-.19s9.92.18,14.88.39c2.48.11,5,.25,7.43.43,1.24.1,2.47.21,3.7.35.78,0,3.31.35,3.63.69a3.13,3.13,0,0,0-.88-.24c-.31-.05-.61-.09-.92-.13-.61-.08-1.23-.13-1.85-.19-1.23-.1-2.47-.17-3.71-.23-2.47-.13-5-.22-7.43-.28-5-.15-9.91-.23-14.87-.29s-9.92,0-14.87.15c-2.48.07-4.94.1-7.41.28A53.26,53.26,0,0,0,70.61,170.61Z"/><path class="cls-23" d="M128.92,168.5a103.37,103.37,0,0,1-25,19.59c-15.06,8.33-32,11.06-32,11.06.7,1.41,2.4,1.8,4.31,1.8h48c2.6,0,4.65-1,4.65-3.43l1-26C129.81,169.94,129.86,169,128.92,168.5Z"/><ellipse class="cls-24" cx="100.87" cy="184.72" rx="5.61" ry="1.63"/><ellipse class="cls-21" cx="100.87" cy="184.72" rx="3.94" ry="1.14"/><polygon class="cls-25" points="45.12 200.49 57.09 200.49 57.97 182.88 44.25 182.88 45.12 200.49"/><rect class="cls-26" x="44.04" y="188.46" width="14.14" height="4.58"/><circle class="cls-27" cx="51.11" cy="190.74" r="1.94"/><rect class="cls-27" x="43.23" y="181.34" width="15.76" height="1.54"/><polygon class="cls-27" points="57.7 180.32 44.51 180.32 44.07 181.34 58.14 181.34 57.7 180.32"/><rect class="cls-28" x="12.39" y="200.26" width="175.81" height="4.94"/><ellipse class="cls-11" cx="99.71" cy="201.49" rx="85.55" ry="0.46"/><ellipse class="cls-11" cx="94.47" cy="203.46" rx="59.33" ry="0.33"/><path class="cls-6" d="M34.92,77h0l.71-4.21h1.25l-1.27,6.6h-1.2l-.93-4h0l-.92,4h-1.2l-1.27-6.6h1.25L32,77h0l1-4.21H34Z"/><path class="cls-6" d="M39.19,79.44a1.87,1.87,0,0,1-1.47-.61,2.21,2.21,0,0,1-.54-1.53v-.69A2.53,2.53,0,0,1,37.69,75a1.69,1.69,0,0,1,1.4-.63,1.63,1.63,0,0,1,1.33.58,2.4,2.4,0,0,1,.47,1.57v.79H38.46v0a1.36,1.36,0,0,0,.22.8.76.76,0,0,0,.66.31,1.77,1.77,0,0,0,.59-.08,3.12,3.12,0,0,0,.54-.27l.33.82a2,2,0,0,1-.68.4A2.65,2.65,0,0,1,39.19,79.44Zm-.11-4.06a.48.48,0,0,0-.45.28,1.83,1.83,0,0,0-.16.76h1.16v-.18a1.3,1.3,0,0,0-.13-.63A.44.44,0,0,0,39.08,75.38Z"/><path class="cls-6" d="M45.38,77.27A2.73,2.73,0,0,1,45,78.85a1.37,1.37,0,0,1-1.2.59,1.12,1.12,0,0,1-.6-.16,1.32,1.32,0,0,1-.44-.46l-.08.53H41.54V72.27h1.29v2.58a1.23,1.23,0,0,1,.41-.38,1.06,1.06,0,0,1,.53-.13A1.37,1.37,0,0,1,45,75a2.9,2.9,0,0,1,.41,1.64ZM44.1,76.6a2.28,2.28,0,0,0-.14-.9.53.53,0,0,0-.53-.32.61.61,0,0,0-.36.1.77.77,0,0,0-.24.29v2.29a.62.62,0,0,0,.24.25.75.75,0,0,0,.36.08.53.53,0,0,0,.53-.29,2,2,0,0,0,.14-.85Z"/><path class="cls-6" d="M47.3,75a1.49,1.49,0,0,1,.46-.5,1,1,0,0,1,.59-.18,1.19,1.19,0,0,1,1,.52,2.77,2.77,0,0,1,.37,1.6v2.88H48.45V76.46a1.76,1.76,0,0,0-.14-.84.49.49,0,0,0-.45-.24.64.64,0,0,0-.32.08.75.75,0,0,0-.24.22v3.67H46V72.27H47.3Z"/><path class="cls-6" d="M50.41,76.59A2.44,2.44,0,0,1,50.93,75a2,2,0,0,1,2.94,0,2.43,2.43,0,0,1,.53,1.62v.61a2.42,2.42,0,0,1-.53,1.62,2,2,0,0,1-2.94,0,2.42,2.42,0,0,1-.52-1.62Zm1.28.61a2,2,0,0,0,.16.89.56.56,0,0,0,.55.32.56.56,0,0,0,.54-.32,2,2,0,0,0,.16-.89v-.61a2,2,0,0,0-.16-.88.62.62,0,0,0-1.09,0,2,2,0,0,0-.16.88Z"/><path class="cls-6" d="M54.92,76.59A2.44,2.44,0,0,1,55.44,75a2,2,0,0,1,2.94,0,2.43,2.43,0,0,1,.53,1.62v.61a2.42,2.42,0,0,1-.53,1.62,2,2,0,0,1-2.94,0,2.42,2.42,0,0,1-.52-1.62Zm1.28.61a2,2,0,0,0,.16.89.56.56,0,0,0,.55.32.56.56,0,0,0,.54-.32,2,2,0,0,0,.16-.89v-.61a2,2,0,0,0-.16-.88.62.62,0,0,0-1.09,0,2,2,0,0,0-.16.88Z"/><path class="cls-6" d="M61.11,77.31h-.24v2H59.58V72.27h1.29v4h.21l.83-1.85H63.4l-1.28,2.21,1.49,2.7H62.14Z"/><path class="cls-6" d="M66.09,78.06a.48.48,0,0,0-.16-.36,2.72,2.72,0,0,0-.63-.37,3.3,3.3,0,0,1-1.11-.63,1.19,1.19,0,0,1-.37-.91,1.33,1.33,0,0,1,.47-1,1.81,1.81,0,0,1,1.25-.42,1.88,1.88,0,0,1,1.3.44,1.37,1.37,0,0,1,.47,1.11v0H66.06a.84.84,0,0,0-.13-.49.44.44,0,0,0-.39-.18.49.49,0,0,0-.35.14.48.48,0,0,0,0,.69,2.93,2.93,0,0,0,.63.37,3.05,3.05,0,0,1,1.14.62,1.34,1.34,0,0,1-.13,2,2,2,0,0,1-1.31.4,1.81,1.81,0,0,1-1.34-.5,1.46,1.46,0,0,1-.47-1.12v0H64.9a.8.8,0,0,0,.18.56.64.64,0,0,0,.48.17.56.56,0,0,0,.39-.13A.45.45,0,0,0,66.09,78.06Z"/><path class="cls-8" d="M5.27,83.65H3.06v1.87H5.66v1H1.76v-6.6H5.65v1H3.06v1.65H5.27Z"/><path class="cls-8" d="M7.46,81.64l0,.63A1.46,1.46,0,0,1,8,81.73a1.24,1.24,0,0,1,.68-.19,1.09,1.09,0,0,1,.65.2,1.22,1.22,0,0,1,.42.6,1.53,1.53,0,0,1,.49-.59,1.19,1.19,0,0,1,.7-.21,1.11,1.11,0,0,1,1,.5,2.68,2.68,0,0,1,.35,1.53v3H11v-3a1.74,1.74,0,0,0-.12-.78.41.41,0,0,0-.38-.22.53.53,0,0,0-.33.11.82.82,0,0,0-.24.3v.17c0,.06,0,.11,0,.17v3.21H8.61v-3a1.72,1.72,0,0,0-.12-.78.42.42,0,0,0-.39-.22.57.57,0,0,0-.32.09.77.77,0,0,0-.24.25v3.63H6.26V81.64Z"/><path class="cls-8" d="M15.48,86.55a2.26,2.26,0,0,1-.16-.56,1.53,1.53,0,0,1-.44.48,1,1,0,0,1-.61.18,1.26,1.26,0,0,1-1-.4,1.52,1.52,0,0,1-.37-1.07,1.4,1.4,0,0,1,.46-1.12,2.07,2.07,0,0,1,1.38-.4h.49v-.4a1,1,0,0,0-.13-.55.44.44,0,0,0-.39-.19.37.37,0,0,0-.33.15.78.78,0,0,0-.11.45H13.06v0A1.34,1.34,0,0,1,13.52,82a1.87,1.87,0,0,1,1.31-.45,1.75,1.75,0,0,1,1.24.45,1.66,1.66,0,0,1,.48,1.27v2a4.23,4.23,0,0,0,.05.67,3.68,3.68,0,0,0,.15.62Zm-.84-.87a.67.67,0,0,0,.36-.1.77.77,0,0,0,.26-.27v-.9h-.49a.47.47,0,0,0-.43.2.93.93,0,0,0-.13.52.66.66,0,0,0,.11.4A.36.36,0,0,0,14.64,85.67Z"/><path class="cls-8" d="M18.71,80.46H17.43v-1h1.29Zm0,6.09H17.43V81.64h1.29Z"/><path class="cls-8" d="M21,86.55H19.67V79.47H21Z"/><path class="cls-8" d="M1.29,95.32v2.37H0v-6.6H2.29a2.08,2.08,0,0,1,1.56.58,2.34,2.34,0,0,1,0,3.06,2.09,2.09,0,0,1-1.56.58Zm0-1h1a.73.73,0,0,0,.63-.3,1.3,1.3,0,0,0,.22-.77,1.35,1.35,0,0,0-.22-.78.72.72,0,0,0-.63-.31h-1Z"/><path class="cls-8" d="M7.51,97.69a2.26,2.26,0,0,1-.16-.56,1.53,1.53,0,0,1-.44.48,1,1,0,0,1-.61.18,1.26,1.26,0,0,1-1-.4A1.52,1.52,0,0,1,5,96.32a1.4,1.4,0,0,1,.46-1.12,2.07,2.07,0,0,1,1.38-.4h.49v-.4a1,1,0,0,0-.13-.55.44.44,0,0,0-.39-.19.37.37,0,0,0-.33.15.78.78,0,0,0-.11.45H5.09v0a1.34,1.34,0,0,1,.47-1.09,1.87,1.87,0,0,1,1.31-.45,1.75,1.75,0,0,1,1.24.45,1.66,1.66,0,0,1,.48,1.27v2a4.23,4.23,0,0,0,.05.67,3.68,3.68,0,0,0,.15.62Zm-.84-.87a.67.67,0,0,0,.36-.1.77.77,0,0,0,.26-.27v-.9H6.81a.47.47,0,0,0-.43.2.93.93,0,0,0-.13.52.66.66,0,0,0,.11.4A.36.36,0,0,0,6.67,96.82Z"/><path class="cls-8" d="M11.72,94h-.49a.55.55,0,0,0-.34.1.63.63,0,0,0-.21.28v3.36H9.4V92.78h1.2l.05.66h0A1.33,1.33,0,0,1,11,92.9a.69.69,0,0,1,.49-.2l.18,0,.17,0Z"/><path class="cls-8" d="M14.51,96.41a.48.48,0,0,0-.16-.36,2.72,2.72,0,0,0-.63-.37A3.3,3.3,0,0,1,12.61,95a1.19,1.19,0,0,1-.37-.91,1.33,1.33,0,0,1,.47-1A1.81,1.81,0,0,1,14,92.69a1.88,1.88,0,0,1,1.3.44,1.37,1.37,0,0,1,.47,1.11v0H14.48a.84.84,0,0,0-.13-.49A.44.44,0,0,0,14,93.6a.49.49,0,0,0-.35.14.48.48,0,0,0,0,.69,2.93,2.93,0,0,0,.63.37,3.05,3.05,0,0,1,1.14.62,1.34,1.34,0,0,1-.13,2,2,2,0,0,1-1.31.4,1.81,1.81,0,0,1-1.34-.5,1.46,1.46,0,0,1-.47-1.12v0h1.18a.8.8,0,0,0,.18.56.64.64,0,0,0,.48.17.56.56,0,0,0,.39-.13A.45.45,0,0,0,14.51,96.41Z"/><path class="cls-8" d="M18.31,97.79a1.87,1.87,0,0,1-1.47-.61,2.21,2.21,0,0,1-.54-1.53V95a2.53,2.53,0,0,1,.51-1.63,1.69,1.69,0,0,1,1.4-.63,1.63,1.63,0,0,1,1.33.58A2.4,2.4,0,0,1,20,94.84v.79H17.58v0a1.36,1.36,0,0,0,.22.8.76.76,0,0,0,.66.31,1.77,1.77,0,0,0,.59-.08,3.12,3.12,0,0,0,.54-.27l.33.82a2,2,0,0,1-.68.4A2.65,2.65,0,0,1,18.31,97.79Zm-.11-4.06a.48.48,0,0,0-.45.28,1.83,1.83,0,0,0-.16.76h1.16v-.18a1.3,1.3,0,0,0-.13-.63A.44.44,0,0,0,18.2,93.72Z"/><path class="cls-8" d="M23,94h-.49a.55.55,0,0,0-.34.1.63.63,0,0,0-.21.28v3.36H20.65V92.78h1.2l.05.66h0a1.33,1.33,0,0,1,.33-.55.69.69,0,0,1,.49-.2l.18,0,.17,0Z"/><path class="cls-4" d="M57,11.1v0a1.71,1.71,0,0,1-.39,1.24,1.54,1.54,0,0,1-1.17.42,1.64,1.64,0,0,1-1.23-.47A1.84,1.84,0,0,1,53.72,11V9.47a1.88,1.88,0,0,1,.45-1.34,1.56,1.56,0,0,1,1.19-.48,1.58,1.58,0,0,1,1.2.42A1.8,1.8,0,0,1,57,9.33v0H56a1.16,1.16,0,0,0-.13-.71.62.62,0,0,0-.54-.22.57.57,0,0,0-.5.26,1.39,1.39,0,0,0-.17.78V11a1.33,1.33,0,0,0,.19.78.63.63,0,0,0,.54.26.55.55,0,0,0,.49-.2,1.21,1.21,0,0,0,.12-.7Z"/><path class="cls-4" d="M58.54,10.73v2h-1v-5h1.62a1.63,1.63,0,0,1,1.15.39,1.4,1.4,0,0,1,.42,1.08,1.25,1.25,0,0,1-.17.67,1.22,1.22,0,0,1-.51.45,1,1,0,0,1,.55.43,1.51,1.51,0,0,1,.17.75v.35a2.21,2.21,0,0,0,0,.44.6.6,0,0,0,.17.34v.07H60a.56.56,0,0,1-.15-.36,4.05,4.05,0,0,1,0-.5v-.34a1,1,0,0,0-.15-.58.51.51,0,0,0-.44-.21Zm0-.78h.65a.56.56,0,0,0,.45-.18.78.78,0,0,0,.15-.52.88.88,0,0,0-.15-.54.53.53,0,0,0-.45-.2h-.65Z"/><path class="cls-4" d="M62.78,7.73l.89,3.65h0l.9-3.65h1.27v5h-1V11.26L65,9.32h0L64,12.7h-.65l-.94-3.36h0l.09,1.91V12.7h-1v-5Z"/></g></g></g></svg>