<svg xmlns="http://www.w3.org/2000/svg" xmlns:xlink="http://www.w3.org/1999/xlink" viewBox="0 0 159.99 142.53"><defs><style>.cls-1{fill:none;}.cls-2{fill:#2fa8b5;}.cls-3,.cls-4{fill:#ff4a00;}.cls-3{opacity:0.1;}.cls-11,.cls-5{opacity:0.2;}.cls-6{fill:#1c1c1c;}.cls-7{fill:#d1d1d1;}.cls-8{fill:#9b9b9b;}.cls-9{fill:#7f7f7f;}.cls-10{fill:#e5e5e5;}.cls-11,.cls-13{fill:#fff;}.cls-12{fill:#500d5e;}.cls-14{fill:#4d2256;}.cls-15{clip-path:url(#clip-path);}.cls-16{fill:#eace8b;}.cls-17{fill:#d3b271;}.cls-18{fill:#d83d00;}.cls-19{fill:#edd89d;}.cls-20{fill:#ae4bbc;}.cls-21{fill:#9c3dad;}.cls-22{opacity:0.3;}.cls-23{fill:#ed6c14;}.cls-24{clip-path:url(#clip-path-2);}.cls-25{fill:#ed9514;}.cls-26{fill:#d6d6d6;}.cls-27{fill:#c905ad;}.cls-28{fill:#066bc6;}.cls-29{fill:#004375;}.cls-30{fill:#3a3a3a;}.cls-31{fill:#fcfcfc;}.cls-32{fill:#111;}.cls-33{fill:#2eaeb7;}.cls-34{fill:#009b9b;}.cls-35{fill:#55bf2e;}.cls-36{fill:#60147f;}</style><clipPath id="clip-path"><circle class="cls-1" cx="50.62" cy="56" r="19.99"/></clipPath><clipPath id="clip-path-2"><circle class="cls-2" cx="121.1" cy="99.75" r="15.13"/></clipPath></defs><title>graphic2</title><g id="Layer_2" data-name="Layer 2"><g id="Graphics"><path class="cls-3" d="M88.09,133.8A66.9,66.9,0,1,1,155,66.9,67,67,0,0,1,88.09,133.8Zm0-132.3a65.4,65.4,0,1,0,65.4,65.4A65.47,65.47,0,0,0,88.09,1.5Z"/><path class="cls-4" d="M88.09,117.28A50.38,50.38,0,1,1,138.47,66.9,50.43,50.43,0,0,1,88.09,117.28Zm0-99.25A48.87,48.87,0,1,0,137,66.9,48.93,48.93,0,0,0,88.09,18Z"/><path class="cls-5" d="M160,140.74h-.19s0,0,0-.07v-4.25H141.41V61.6A3.62,3.62,0,0,0,137.79,58H25.24a3.62,3.62,0,0,0-3.62,3.63v74.83H2.53v4.25a1.41,1.41,0,0,0,.22.75,2.22,2.22,0,0,0,2,1.1H157.85v0A1.92,1.92,0,0,0,160,140.74Z"/><rect class="cls-6" x="19.1" y="55.53" width="119.78" height="83.97" rx="3.64" ry="3.64"/><path class="cls-7" d="M0,134v4.2a2.25,2.25,0,0,0,2.3,1.86H155.37a1.85,1.85,0,0,0,1.91-1.86V134Z"/><path class="cls-8" d="M0,138.31a2.07,2.07,0,0,0,2.26,1.74H155.37a1.93,1.93,0,0,0,2.13-1.74Z"/><path class="cls-9" d="M66,134A3.67,3.67,0,0,0,69,135.74H88.71A3.67,3.67,0,0,0,91.63,134Z"/><rect class="cls-10" x="23.51" y="60.59" width="111.3" height="67.65"/><polygon class="cls-11" points="122.32 128.25 134.81 128.25 134.81 60.59 64.41 60.59 122.32 128.25"/><rect class="cls-12" x="23.51" y="60.59" width="30.65" height="67.65"/><rect class="cls-13" x="38.74" y="88.17" width="11.31" height="2.08"/><rect class="cls-13" x="33.78" y="93.13" width="16.27" height="2.08"/><rect class="cls-13" x="36.36" y="98.09" width="13.69" height="2.08"/><rect class="cls-13" x="32.19" y="103.05" width="17.86" height="2.08"/><rect class="cls-13" x="38.74" y="108.01" width="11.31" height="2.08"/><circle class="cls-1" cx="52.78" cy="59.9" r="22.1"/><circle class="cls-13" cx="50.42" cy="56.05" r="22.1"/><circle class="cls-14" cx="50.42" cy="56.05" r="19.99"/><g class="cls-15"><path class="cls-16" d="M58.33,59.7H56.71c-.33,0-1.51,0-1.8-.27A2.73,2.73,0,0,1,54.46,58v-.7H47.71V58a2.58,2.58,0,0,1-.37,1.46c-.28.28-1.39.27-1.71.27H43.89a5.32,5.32,0,0,0-5.25,5.16V76H63.29V64.86A5.06,5.06,0,0,0,58.33,59.7Z"/><path class="cls-17" d="M58.33,59.7H56.71c-.33,0-1.51,0-1.8-.27A2.73,2.73,0,0,1,54.46,58v-.7H51.24V76H63.29V64.86A5.06,5.06,0,0,0,58.33,59.7Z"/><path class="cls-18" d="M58.43,52.66V47.92c0-4.32-2.87-6.35-7-6.35s-7.57,2-7.57,6.35v4.74Z"/><path class="cls-19" d="M51.37,42.45c-3.43,0-6.48,1.7-6.48,5.32v4.34H45a6.52,6.52,0,0,0,6.2,6.29,6.52,6.52,0,0,0,6.2-6.29h-.1V47.77C57.34,44.16,54.79,42.45,51.37,42.45Z"/><path class="cls-16" d="M51.44,42.45h-.2V58.36a6.58,6.58,0,0,0,6.2-6.25h-.1V47.77C57.34,44.16,54.86,42.45,51.44,42.45Z"/><path class="cls-19" d="M45.43,51.59a.86.86,0,0,1-.79.87h0a.82.82,0,0,1-.74-.87v-2a.77.77,0,0,1,.74-.82h0a.81.81,0,0,1,.79.82Z"/><path class="cls-18" d="M47.25,43.57s2.91,4.57,6.1,5.44c5.17,1.42,3.63,8.49,4.09,6.5a53.62,53.62,0,0,0,1-8L56.83,44l-3.4-1.51-2.64-.86-2.94.86Z"/><path class="cls-20" d="M58.33,59.7H56.71c-.33,0-1.42,0-1.7-.27h0l-3.76,2.28L47.57,59a.91.91,0,0,1-.24.43c-.28.28-1.37.27-1.7.27H43.89a5.32,5.32,0,0,0-5.25,5.16V76H63.29V64.86A5.06,5.06,0,0,0,58.33,59.7Z"/><path class="cls-21" d="M58.33,59.7H56.71c-.33,0-1.42,0-1.7-.27h0l-3.76,2.3V76H63.29V64.86A5.06,5.06,0,0,0,58.33,59.7Z"/><circle class="cls-13" cx="51.2" cy="63.07" r="0.7"/><circle class="cls-13" cx="49.52" cy="62.79" r="0.7"/><circle class="cls-13" cx="48.11" cy="61.66" r="0.7"/><circle class="cls-13" cx="46.98" cy="60.26" r="0.7"/><circle class="cls-13" cx="52.89" cy="62.79" r="0.7"/><circle class="cls-13" cx="54.3" cy="61.66" r="0.7"/><circle class="cls-13" cx="55.42" cy="60.26" r="0.7"/></g><circle class="cls-22" cx="110.37" cy="35.45" r="17.49"/><circle class="cls-13" cx="108.5" cy="32.41" r="17.49"/><circle class="cls-23" cx="108.5" cy="32.41" r="15.82"/><circle class="cls-22" cx="122.89" cy="102.67" r="16.72"/><circle class="cls-13" cx="121.1" cy="99.75" r="16.72"/><circle class="cls-2" cx="121.1" cy="99.75" r="15.13"/><g class="cls-24"><path class="cls-16" d="M126.92,103.45h-1.27c-.26,0-1.13.05-1.36-.17a1.94,1.94,0,0,1-.3-1.11v-.65h-5.36v.65a2,2,0,0,1-.32,1.11c-.22.22-1.12.17-1.38.17h-1.37a4.07,4.07,0,0,0-3.93,4.13v8.81h19.15v-8.81A4,4,0,0,0,126.92,103.45Z"/><path class="cls-17" d="M126.92,103.45h-1.27c-.26,0-1.13.05-1.36-.17a1.94,1.94,0,0,1-.3-1.11v-.65h-2.63v14.88h9.42v-8.81A4,4,0,0,0,126.92,103.45Z"/><path class="cls-25" d="M126.78,97.3V93.87c0-3.13-2.22-4.6-5.19-4.6S116,90.74,116,93.87V97.3Z"/><path class="cls-19" d="M121.52,90c-2.69,0-5.06,1.34-5.06,4.18v3.45h0a4.87,4.87,0,1,0,9.74,0h0V94.14C126.18,91.3,124.21,90,121.52,90Z"/><path class="cls-16" d="M121.54,90h-.17v12.5a5,5,0,0,0,4.85-4.88h0V94.14C126.18,91.3,124.23,90,121.54,90Z"/><path class="cls-16" d="M127,97.16a.61.61,0,0,1-.62.63h0a.58.58,0,0,1-.58-.63V95.55a.62.62,0,0,1,.58-.68h0a.65.65,0,0,1,.62.68Z"/><path class="cls-19" d="M116.81,97.16a.58.58,0,0,1-.59.63h0a.6.6,0,0,1-.61-.63V95.55a.65.65,0,0,1,.61-.68h0a.63.63,0,0,1,.59.68Z"/><path class="cls-25" d="M118.22,90.84a3.3,3.3,0,0,0,3.13,2c2.59.2,3-.33,4.38.46s.68.22.68.22l-1.05-2.63L123.08,90l-2-.51L118.7,90Z"/><path class="cls-13" d="M126.92,103.45h-1.27c-.26,0-1.11.05-1.34-.17,0,0,0,0,0,0l-3,1.8L118.47,103a.6.6,0,0,1-.19.3c-.22.22-1.08.18-1.34.18h-1.37a4.07,4.07,0,0,0-3.93,4.13v8.81h19.15v-8.81A4,4,0,0,0,126.92,103.45Z"/><path class="cls-26" d="M126.92,103.45h-1.27c-.26,0-1.11.05-1.34-.17,0,0,0,0,0,0l-2.94,1.82v11.28h9.42v-8.81A4,4,0,0,0,126.92,103.45Z"/><polygon class="cls-27" points="121.37 105.12 119.83 106.19 120.59 106.94 119.83 116.39 121.37 116.39 121.37 105.12"/><polygon class="cls-28" points="121.37 105.12 119.83 106.19 120.59 106.94 119.83 116.39 121.37 116.39 121.37 105.12"/><polygon class="cls-29" points="121.37 105.12 122.87 106.19 122.09 106.94 122.84 116.39 121.37 116.39 121.37 105.12"/><path class="cls-30" d="M127,103.25h-1.31c-.06,0-.15.06-.25.06l-4.34,13.08h10v-8.95A4.17,4.17,0,0,0,127,103.25Z"/><path class="cls-30" d="M116.65,103.25h-1.41a4.18,4.18,0,0,0-4.08,4.2v8.95h9.92l-3.77-13.1A4.65,4.65,0,0,1,116.65,103.25Z"/><path class="cls-31" d="M119.26,99.48a2.39,2.39,0,0,0,4.47,0Z"/></g><path class="cls-13" d="M118.13,25.66a4.06,4.06,0,0,0-2.51.2l-3.77,1.52A4,4,0,0,0,109.91,29a2.57,2.57,0,0,0-.35,2l-1.79.72a2.57,2.57,0,0,0-1.66-1.21,4,4,0,0,0-2.5.2l-3.77,1.52A4,4,0,0,0,97.9,33.8a2.55,2.55,0,0,0-.26,2.3l.45,1.11a2.55,2.55,0,0,0,1.78,1.47,4,4,0,0,0,2.5-.2L106.13,37a4,4,0,0,0,1.95-1.59,2.61,2.61,0,0,0,.4-1.8l1.86-.75a2.61,2.61,0,0,0,1.54,1,4,4,0,0,0,2.5-.2l3.77-1.52a4,4,0,0,0,2-1.59,2.56,2.56,0,0,0,.27-2.3l-.45-1.11A2.57,2.57,0,0,0,118.13,25.66Zm-12.52,10-3.77,1.52c-1.06.42-2.19.19-2.47-.5l-.45-1.11c-.28-.69.37-1.65,1.43-2.08L104.12,32a2.16,2.16,0,0,1,2.32.27l-1.69.68a1,1,0,1,0,.74,1.85l1.6-.64A2.31,2.31,0,0,1,105.61,35.67Zm13.47-6.92c.28.69-.4,1.66-1.45,2.08l-3.77,1.52a2.31,2.31,0,0,1-2.13-.09l1-.41A1,1,0,1,0,112,30l-1.11.44a2.16,2.16,0,0,1,1.49-1.8l3.77-1.52c1.06-.42,2.21-.19,2.49.5Z"/><path class="cls-32" d="M38,138.42a4.14,4.14,0,0,1-4.13,4.11h-25a4.11,4.11,0,0,1-4.11-4.11V93.86a4.1,4.1,0,0,1,4.11-4.1h25A4.12,4.12,0,0,1,38,93.86Z"/><rect class="cls-33" x="7.47" y="95.91" width="27.77" height="40.09"/><rect class="cls-34" x="21.35" y="95.91" width="13.89" height="40.09"/><path class="cls-35" d="M45,112.58c0,2.27-1.43,4.06-3.39,4.06H20.92a3.79,3.79,0,0,1-3.51-4.06v-9.42a3.75,3.75,0,0,1,3.51-4H41.59c2,0,3.39,1.76,3.39,4Z"/><polygon class="cls-35" points="27.18 114.75 27.18 123.2 33.58 115.96 27.18 114.75"/><rect class="cls-13" x="21.97" y="104.44" width="11.51" height="1.74"/><path class="cls-35" d="M56.15,6.38H76.1a3.65,3.65,0,0,1,3.51,3.81v9.09c0,2.19-1.62,4.11-3.51,4.11H70v6.14l-5.46-6.14H56.15c-1.89,0-3.23-1.92-3.23-4.11V10.19C52.92,8,54.26,6.38,56.15,6.38Z"/><path class="cls-13" d="M67.25,18V13h1.53a2.14,2.14,0,0,0-1.53-2.26V8.86q4.29.29,4.29,5.59V18Z"/><path class="cls-13" d="M65.1,11.91v4.93H63.57A2.14,2.14,0,0,0,65.1,19.1V21q-4.29-.29-4.29-5.59V11.91Z"/><path class="cls-36" d="M64.92,89.1a4.54,4.54,0,0,0-3.63,1.5A6.09,6.09,0,0,0,60,94.72a6.15,6.15,0,0,0,1.35,4.16A4.58,4.58,0,0,0,65,100.44a4.75,4.75,0,0,0,4.44-2.92L71,98.3a6.3,6.3,0,0,1-2.44,2.76,6.92,6.92,0,0,1-3.65.95,7.31,7.31,0,0,1-3.68-.88,5.79,5.79,0,0,1-2.36-2.52,8.66,8.66,0,0,1-.81-3.89,7.33,7.33,0,0,1,1.82-5.27,6.62,6.62,0,0,1,5-1.91,7.35,7.35,0,0,1,3.75.88A5.19,5.19,0,0,1,70.86,91l-1.81.6a3.73,3.73,0,0,0-1.57-1.88A4.91,4.91,0,0,0,64.92,89.1Z"/><path class="cls-36" d="M83.39,101.81,79.73,96H75.35v5.84H73.45V87.75h6.62a5.63,5.63,0,0,1,3.67,1.06,3.62,3.62,0,0,1,1.29,3,3.91,3.91,0,0,1-.91,2.63,4.11,4.11,0,0,1-2.52,1.35l4,6.06Zm-.28-10a2.22,2.22,0,0,0-.83-1.87,3.86,3.86,0,0,0-2.4-.64H75.35v5.19H80a3.48,3.48,0,0,0,2.33-.7A2.45,2.45,0,0,0,83.11,91.79Z"/><path class="cls-36" d="M100.16,101.81V92.43q0-1.56.09-3-.49,1.79-.88,2.79l-3.63,9.58H94.4l-3.68-9.58-.56-1.7-.33-1.1,0,1.11,0,1.89v9.38h-1.7V87.75h2.5l3.74,9.75q.2.59.38,1.26t.24,1q.08-.4.33-1.21t.34-1l3.67-9.75h2.44v14.06Z"/></g></g></svg>