<svg xmlns="http://www.w3.org/2000/svg" viewBox="0 0 183.11 83.76"><defs><style>.cls-1{fill:#ff4a00;}</style></defs><title>logo</title><g id="Layer_2" data-name="Layer 2"><g id="Graphics"><path class="cls-1" d="M0,65.93,19,36.44H2.25A17.17,17.17,0,0,1,2,33.63a16.71,16.71,0,0,1,.21-2.74h27l.35.91L10.53,61.36h17.9a19.38,19.38,0,0,1,.21,2.88,16.22,16.22,0,0,1-.21,2.67H.35Z"/><path class="cls-1" d="M54.69,43.18q0-4.14-2.11-5.76a9.9,9.9,0,0,0-6.11-1.61,26,26,0,0,0-4.6.39,35.22,35.22,0,0,0-4.18,1,10.93,10.93,0,0,1-1.33-5.55,32.28,32.28,0,0,1,5.27-1.19,38.28,38.28,0,0,1,5.55-.42q7,0,10.67,3.2T61.5,43.46V66q-2.46.56-6,1.16a42.76,42.76,0,0,1-7.16.6,28,28,0,0,1-6.21-.63,12.68,12.68,0,0,1-4.7-2,9.43,9.43,0,0,1-3-3.58,12,12,0,0,1-1.05-5.27A10.73,10.73,0,0,1,38,47.15a14.86,14.86,0,0,1,4.84-2.25,22,22,0,0,1,5.76-.74q2.25,0,3.69.11t2.42.25Zm0,6.81q-1.05-.14-2.67-.28t-2.74-.14q-4.35,0-6.63,1.61a5.62,5.62,0,0,0-2.28,4.91,6,6,0,0,0,.77,3.3,5.31,5.31,0,0,0,1.93,1.83,6.68,6.68,0,0,0,2.56.77q1.4.14,2.67.14A32.69,32.69,0,0,0,51.64,62a20,20,0,0,0,3.05-.53Z"/><path class="cls-1" d="M69.09,30.89c.47-.09.95-.16,1.44-.21s1-.07,1.51-.07,1,0,1.47.07a14.44,14.44,0,0,1,1.47.21,4.44,4.44,0,0,1,.18.88q.11.74.21,1.58c.07.56.14,1.1.21,1.61s.11.84.11,1a14.23,14.23,0,0,1,1.68-2.18,11.23,11.23,0,0,1,2.35-1.9,12.3,12.3,0,0,1,3.09-1.33,13.93,13.93,0,0,1,3.83-.49A16,16,0,0,1,92.5,31.1a11.72,11.72,0,0,1,4.63,3.26,15.7,15.7,0,0,1,3,5.62,26.5,26.5,0,0,1,1.09,8q0,9.27-5,14.5T82,67.75a24.46,24.46,0,0,1-3.16-.21A18.78,18.78,0,0,1,76,67v16.5q-.84.14-1.79.21t-1.72.07c-.52,0-1.09,0-1.72-.07a16.92,16.92,0,0,1-1.72-.21ZM76,61a13.78,13.78,0,0,0,2.74.7,25.57,25.57,0,0,0,3.65.21,12.84,12.84,0,0,0,4.63-.81,9.2,9.2,0,0,0,3.62-2.49,12.19,12.19,0,0,0,2.39-4.25,18.79,18.79,0,0,0,.88-6.07q0-5.62-2.07-8.92t-6.77-3.3a9.15,9.15,0,0,0-3.37.63,8.31,8.31,0,0,0-2.88,1.9,9.36,9.36,0,0,0-2,3.19,12.34,12.34,0,0,0-.77,4.6Z"/><path class="cls-1" d="M109.88,36.37h-4.56a8.8,8.8,0,0,1-.21-1.3q-.07-.74-.07-1.44c0-.47,0-.95.07-1.44a8.86,8.86,0,0,1,.21-1.3h11.37v36a17,17,0,0,1-1.72.21q-.95.07-1.72.07t-1.65-.07a16.94,16.94,0,0,1-1.72-.21Z"/><path class="cls-1" d="M131.64,50.62q.14,5.9,3.05,8.64T143.3,62a25.82,25.82,0,0,0,9.48-1.76,10.53,10.53,0,0,1,.91,2.56,16.75,16.75,0,0,1,.42,3A23.44,23.44,0,0,1,149,67.26a35.42,35.42,0,0,1-6.14.49,23.2,23.2,0,0,1-8.43-1.37,14.81,14.81,0,0,1-9.13-9.76,25.25,25.25,0,0,1-1.05-7.48,26.46,26.46,0,0,1,1-7.48,16.84,16.84,0,0,1,3.12-6,15.09,15.09,0,0,1,5.3-4.07,17.51,17.51,0,0,1,7.55-1.51,15.78,15.78,0,0,1,6.53,1.26,13.28,13.28,0,0,1,4.7,3.48,15.11,15.11,0,0,1,2.88,5.27,21.56,21.56,0,0,1,1,6.64c0,.66,0,1.35-.07,2.07s-.09,1.35-.14,1.86Zm17.83-5.19a13.27,13.27,0,0,0-.53-3.76,9.57,9.57,0,0,0-1.54-3.12,7.53,7.53,0,0,0-2.6-2.14A8.16,8.16,0,0,0,141,35.6a8.27,8.27,0,0,0-6.56,2.6,12.72,12.72,0,0,0-2.77,7.23Z"/><path class="cls-1" d="M164,30.89q.77-.14,1.47-.21c.47,0,1-.07,1.47-.07s1,0,1.54.07a11.48,11.48,0,0,1,1.4.21q.21,1.05.42,2.77a24.7,24.7,0,0,1,.21,2.91,14.54,14.54,0,0,1,3.9-4.14,10.33,10.33,0,0,1,6.21-1.76q.56,0,1.16,0c.4,0,.74.06,1,.1a11.57,11.57,0,0,1,.21,1.33q.07.7.07,1.47a15.32,15.32,0,0,1-.1,1.76q-.11.91-.25,1.75A4.82,4.82,0,0,0,181.6,37h-.95a12.3,12.3,0,0,0-3.62.53,7.56,7.56,0,0,0-3.09,1.86A9.24,9.24,0,0,0,171.77,43a18.43,18.43,0,0,0-.81,6v17.9a17,17,0,0,1-1.72.21q-.95.07-1.72.07t-1.72-.07q-.95-.07-1.79-.21Z"/><path class="cls-1" d="M123.31,9.71h-6.8l4.81-4.81a11.72,11.72,0,0,0-1.26-1.49h0a11.73,11.73,0,0,0-1.49-1.26L113.76,7V.16A11.73,11.73,0,0,0,111.83,0h0a11.73,11.73,0,0,0-1.94.16V7l-4.81-4.81a11.65,11.65,0,0,0-1.49,1.26h0a11.69,11.69,0,0,0-1.26,1.49l4.81,4.81h-6.8s-.16,1.28-.16,1.94h0a11.66,11.66,0,0,0,.16,1.94h6.8l-4.81,4.81a11.73,11.73,0,0,0,2.75,2.75l4.81-4.81v6.8a11.73,11.73,0,0,0,1.93.16h0a11.72,11.72,0,0,0,1.93-.16v-6.8l4.81,4.81a11.73,11.73,0,0,0,1.49-1.26h0a11.77,11.77,0,0,0,1.26-1.49l-4.81-4.81h6.8a11.73,11.73,0,0,0,.16-1.93v0A11.73,11.73,0,0,0,123.31,9.71Zm-8.58,1.95a7,7,0,0,1-.45,2.46,7,7,0,0,1-2.46.45h0a7,7,0,0,1-2.46-.45,7,7,0,0,1-.45-2.46h0a7,7,0,0,1,.45-2.46,7,7,0,0,1,2.46-.45h0a7,7,0,0,1,2.46.45,7,7,0,0,1,.45,2.46Z"/></g></g></svg>